<mxfile host="app.diagrams.net" modified="2024-07-06T01:13:11.185Z" agent="Mozilla/5.0 (Macintosh; Intel Mac OS X 10_15_7) AppleWebKit/537.36 (KHTML, like Gecko) Chrome/126.0.0.0 Safari/537.36" version="24.6.4" etag="N4UfVYHTM6a2eBCAAK0Y" type="device">
  <diagram id="H_r-wBG3O10B7-C4vsge" name="Page-1">
    <mxGraphModel dx="954" dy="606" grid="1" gridSize="10" guides="1" tooltips="1" connect="1" arrows="1" fold="1" page="1" pageScale="1" pageWidth="827" pageHeight="1169" math="0" shadow="0">
      <root>
        <mxCell id="0" />
        <mxCell id="1" parent="0" />
        <mxCell id="W6XmqzDBe2J_CZ6NjCcg-1" value="Internet" style="whiteSpace=wrap;strokeWidth=2;fillColor=#dae8fc;strokeColor=#6c8ebf;" vertex="1" parent="1">
          <mxGeometry x="192" y="330" width="73" height="34" as="geometry" />
        </mxCell>
        <mxCell id="W6XmqzDBe2J_CZ6NjCcg-2" value="Firewall" style="whiteSpace=wrap;strokeWidth=2;fillColor=#f8cecc;strokeColor=#b85450;" vertex="1" parent="1">
          <mxGeometry x="192" y="414" width="73" height="34" as="geometry" />
        </mxCell>
        <mxCell id="W6XmqzDBe2J_CZ6NjCcg-3" value="Router" style="whiteSpace=wrap;strokeWidth=2;fillColor=#fff2cc;strokeColor=#d6b656;" vertex="1" parent="1">
          <mxGeometry x="197" y="497" width="62" height="34" as="geometry" />
        </mxCell>
        <mxCell id="W6XmqzDBe2J_CZ6NjCcg-4" value="Switch" style="whiteSpace=wrap;strokeWidth=2;fillColor=#d5e8d4;strokeColor=#82b366;" vertex="1" parent="1">
          <mxGeometry x="197" y="581" width="62" height="34" as="geometry" />
        </mxCell>
        <mxCell id="W6XmqzDBe2J_CZ6NjCcg-5" value="Workstations" style="whiteSpace=wrap;strokeWidth=2;" vertex="1" parent="1">
          <mxGeometry x="20" y="664" width="107" height="34" as="geometry" />
        </mxCell>
        <mxCell id="W6XmqzDBe2J_CZ6NjCcg-6" value="Access Point" style="whiteSpace=wrap;strokeWidth=2;" vertex="1" parent="1">
          <mxGeometry x="177" y="664" width="103" height="34" as="geometry" />
        </mxCell>
        <mxCell id="W6XmqzDBe2J_CZ6NjCcg-7" value="Servers" style="whiteSpace=wrap;strokeWidth=2;" vertex="1" parent="1">
          <mxGeometry x="330" y="664" width="67" height="34" as="geometry" />
        </mxCell>
        <mxCell id="W6XmqzDBe2J_CZ6NjCcg-8" value="" style="curved=1;startArrow=none;endArrow=block;exitX=0.5;exitY=0.99;entryX=0.5;entryY=-0.01;rounded=0;" edge="1" parent="1" source="W6XmqzDBe2J_CZ6NjCcg-1" target="W6XmqzDBe2J_CZ6NjCcg-2">
          <mxGeometry relative="1" as="geometry">
            <Array as="points" />
          </mxGeometry>
        </mxCell>
        <mxCell id="W6XmqzDBe2J_CZ6NjCcg-9" value="" style="curved=1;startArrow=none;endArrow=block;exitX=0.5;exitY=0.97;entryX=0.5;entryY=0;rounded=0;" edge="1" parent="1" source="W6XmqzDBe2J_CZ6NjCcg-2" target="W6XmqzDBe2J_CZ6NjCcg-3">
          <mxGeometry relative="1" as="geometry">
            <Array as="points" />
          </mxGeometry>
        </mxCell>
        <mxCell id="W6XmqzDBe2J_CZ6NjCcg-10" value="" style="curved=1;startArrow=none;endArrow=block;exitX=0.5;exitY=0.99;entryX=0.5;entryY=-0.01;rounded=0;" edge="1" parent="1" source="W6XmqzDBe2J_CZ6NjCcg-3" target="W6XmqzDBe2J_CZ6NjCcg-4">
          <mxGeometry relative="1" as="geometry">
            <Array as="points" />
          </mxGeometry>
        </mxCell>
        <mxCell id="W6XmqzDBe2J_CZ6NjCcg-11" value="" style="curved=1;startArrow=none;endArrow=block;exitX=0;exitY=0.72;entryX=0.5;entryY=0;rounded=0;" edge="1" parent="1" source="W6XmqzDBe2J_CZ6NjCcg-4" target="W6XmqzDBe2J_CZ6NjCcg-5">
          <mxGeometry relative="1" as="geometry">
            <Array as="points">
              <mxPoint x="73" y="639" />
            </Array>
          </mxGeometry>
        </mxCell>
        <mxCell id="W6XmqzDBe2J_CZ6NjCcg-12" value="" style="curved=1;startArrow=none;endArrow=block;exitX=0.5;exitY=0.97;entryX=0.5;entryY=0;rounded=0;" edge="1" parent="1" source="W6XmqzDBe2J_CZ6NjCcg-4" target="W6XmqzDBe2J_CZ6NjCcg-6">
          <mxGeometry relative="1" as="geometry">
            <Array as="points" />
          </mxGeometry>
        </mxCell>
        <mxCell id="W6XmqzDBe2J_CZ6NjCcg-13" value="" style="curved=1;startArrow=none;endArrow=block;exitX=1.01;exitY=0.76;entryX=0.5;entryY=0;rounded=0;" edge="1" parent="1" source="W6XmqzDBe2J_CZ6NjCcg-4" target="W6XmqzDBe2J_CZ6NjCcg-7">
          <mxGeometry relative="1" as="geometry">
            <Array as="points">
              <mxPoint x="363" y="639" />
            </Array>
          </mxGeometry>
        </mxCell>
      </root>
    </mxGraphModel>
  </diagram>
</mxfile>
